solid case_final_v3
facet normal -1.64712851451337e-015 0.562727559165455 0.826642422184882
  outer loop
    vertex 68.6273525433264 53.6806588366954 47.3176514887233
    vertex 74.1450040320496 55.4016323437588 46.3817919278594
    vertex 68.6273525433263 55.4016323437588 46.3817919278594
  endloop
endfacet
facet normal -5.38815478752926e-015 0.47772920818889 0.878507144901632
  outer loop
    vertex 74.1450040320496 55.4016323437588 46.3817919278594
    vertex 68.6273525433264 53.6806588366954 47.3176514887233
    vertex 74.1450040320496 53.6806588366954 47.3176514887234
  endloop
endfacet
facet normal 1.49716837581047e-015 0.71519907440425 0.698920799498272
  outer loop
    vertex 74.1450040320497 50.5750120478609 49.9191751027581
    vertex 68.6273525433264 53.6806588366954 47.3176514887233
    vertex 68.6273525433264 50.575012047861 49.9191751027581
  endloop
endfacet
facet normal -1.64712851451337e-015 0.562727559165455 0.826642422184882
  outer loop
    vertex 68.6273525433264 53.6806588366954 47.3176514887233
    vertex 74.1450040320497 50.5750120478609 49.9191751027581
    vertex 74.1450040320496 53.6806588366954 47.3176514887234
  endloop
endfacet
facet normal -5.38676719753088e-015 -0.477729208188853 0.878507144901652
  outer loop
    vertex 74.1450040320496 74.7016323437588 46.2827598221735
    vertex 68.6273525433264 76.6047182503333 47.3176514887233
    vertex 68.6273525433263 74.7016323437588 46.2827598221735
  endloop
endfacet
facet normal -5.46100277332539e-015 -0.562727559165443 0.82664242218489
  outer loop
    vertex 68.6273525433264 76.6047182503333 47.3176514887233
    vertex 74.1450040320496 74.7016323437588 46.2827598221735
    vertex 74.1450040320496 76.6047182503333 47.3176514887234
  endloop
endfacet
facet normal -5.46100277332539e-015 -0.562727559165443 0.82664242218489
  outer loop
    vertex 68.6273525433264 76.6047182503333 47.3176514887233
    vertex 74.1450040320497 79.7103650391677 49.9191751027581
    vertex 68.6273525433264 79.7103650391677 49.9191751027581
  endloop
endfacet
facet normal -2.54079069679322e-015 -0.715199074404252 0.698920799498271
  outer loop
    vertex 74.1450040320497 79.7103650391677 49.9191751027581
    vertex 68.6273525433264 76.6047182503333 47.3176514887233
    vertex 74.1450040320496 76.6047182503333 47.3176514887234
  endloop
endfacet
facet normal 0.787860222612898 -4.24207067844581e-014 -0.615854097676028
  outer loop
    vertex 188.008549632795 80.9750370547909 15.6865827247093
    vertex 201.727352543325 78.1575416447505 33.2370044168926
    vertex 188.008549632795 78.1575416447505 15.6865827247093
  endloop
endfacet
facet normal 0.787860222612898 -4.24207067844581e-014 -0.615854097676028
  outer loop
    vertex 201.727352543325 78.1575416447505 33.2370044168926
    vertex 188.008549632795 80.9750370547909 15.6865827247093
    vertex 201.727352543326 80.9750370547909 33.2370044168925
  endloop
endfacet
facet normal -2.7487007962966e-013 -3.60315736488268e-014 1.0
  outer loop
    vertex 184.450741123822 49.3103400322343 40.9023226196065
    vertex 201.727352543327 52.1278354422782 40.9023226196113
    vertex 184.45074112382 52.1278354422741 40.9023226196066
  endloop
endfacet
facet normal -2.7487007962966e-013 -3.60315736488268e-014 1.0
  outer loop
    vertex 201.727352543327 52.1278354422782 40.9023226196113
    vertex 184.450741123822 49.3103400322343 40.9023226196065
    vertex 201.727352543328 49.3103400322383 40.9023226196112
  endloop
endfacet
facet normal 5.87608246239232e-015 -8.00701636637602e-015 1.0
  outer loop
    vertex 184.450741123819 78.1575416447496 40.9023226196112
    vertex 201.727352543326 80.9750370547908 40.9023226196112
    vertex 184.450741123819 80.97503705479 40.9023226196112
  endloop
endfacet
facet normal 5.87608246239232e-015 -8.00701636637602e-015 1.0
  outer loop
    vertex 201.727352543326 80.9750370547908 40.9023226196112
    vertex 184.450741123819 78.1575416447496 40.9023226196112
    vertex 201.727352543326 78.1575416447505 40.9023226196111
  endloop
endfacet
facet normal 1.14257158990918e-013 -1.0 2.61673441416491e-013
  outer loop
    vertex 201.727352543327 52.1278354422782 40.9023226196113
    vertex 184.450741123819 52.1278354422782 48.6184132957409
    vertex 184.45074112382 52.1278354422741 40.9023226196066
  endloop
endfacet
facet normal 1.14257158990918e-013 -1.0 2.61673441416491e-013
  outer loop
    vertex 184.450741123819 52.1278354422782 48.6184132957409
    vertex 201.727352543327 52.1278354422782 40.9023226196113
    vertex 201.727352543326 52.1278354422781 48.6184132957406
  endloop
endfacet
facet normal 1.07035939609945e-014 0.562727559165436 0.826642422184895
  outer loop
    vertex 184.450741123819 53.6806588366954 47.3176514887233
    vertex 201.727352543326 57.2397478288607 45.3822309563255
    vertex 184.450741123819 57.2397478288608 45.3822309563257
  endloop
endfacet
facet normal 1.09912379607965e-014 0.387994330178748 0.921661759947294
  outer loop
    vertex 201.727352543326 57.2397478288607 45.3822309563255
    vertex 184.450741123819 53.6806588366954 47.3176514887233
    vertex 201.727352543326 53.6806588366954 47.3176514887232
  endloop
endfacet
facet normal 1.09912379607965e-014 0.387994330178748 0.921661759947294
  outer loop
    vertex 201.727352543326 57.2397478288607 45.3822309563255
    vertex 184.450741123819 61.1114801261044 44.1894794692755
    vertex 184.450741123819 57.2397478288608 45.3822309563257
  endloop
endfacet
facet normal 5.28720033683638e-015 0.197911899658304 0.980219812069539
  outer loop
    vertex 184.450741123819 61.1114801261044 44.1894794692755
    vertex 201.727352543326 57.2397478288607 45.3822309563255
    vertex 201.727352543326 61.1114801261043 44.1894794692754
  endloop
endfacet
facet normal 5.28720033683671e-015 0.19791189965831 0.980219812069537
  outer loop
    vertex 201.727352543326 61.1114801261043 44.1894794692754
    vertex 184.450741123819 63.1270843348093 43.9880310969923
    vertex 184.450741123819 61.1114801261044 44.1894794692755
  endloop
endfacet
facet normal -6.54443463263003e-017 0.0994489515542142 0.995042665434386
  outer loop
    vertex 184.450741123819 63.1270843348093 43.9880310969923
    vertex 201.727352543326 61.1114801261043 44.1894794692754
    vertex 201.727352543325 63.1270843348093 43.9880310969924
  endloop
endfacet
facet normal 1.00149880735104e-014 0.642146652581889 0.766581813362328
  outer loop
    vertex 201.727352543326 52.1278354422781 48.6184132957406
    vertex 184.450741123819 53.6806588366954 47.3176514887233
    vertex 184.450741123819 52.1278354422782 48.6184132957409
  endloop
endfacet
facet normal 1.07035939609945e-014 0.562727559165436 0.826642422184895
  outer loop
    vertex 184.450741123819 53.6806588366954 47.3176514887233
    vertex 201.727352543326 52.1278354422781 48.6184132957406
    vertex 201.727352543326 53.6806588366954 47.3176514887232
  endloop
endfacet
facet normal -2.59819014152697e-016 -0.0994489515542213 0.995042665434385
  outer loop
    vertex 201.727352543325 67.1582927522193 43.9880310969924
    vertex 184.450741123819 69.1738969609244 44.1894794692755
    vertex 184.450741123819 67.1582927522193 43.9880310969923
  endloop
endfacet
facet normal 3.64230869320158e-015 -0.197911899658304 0.980219812069538
  outer loop
    vertex 184.450741123819 69.1738969609244 44.1894794692755
    vertex 201.727352543325 67.1582927522193 43.9880310969924
    vertex 201.727352543326 69.1738969609243 44.1894794692754
  endloop
endfacet
facet normal 7.1801058688837e-015 -0.387994330178738 0.921661759947299
  outer loop
    vertex 201.727352543326 73.045629258168 45.3822309563255
    vertex 184.450741123819 76.6047182503333 47.3176514887232
    vertex 184.450741123819 73.0456292581681 45.3822309563257
  endloop
endfacet
facet normal 5.75098213262399e-015 -0.562727559165437 0.826642422184895
  outer loop
    vertex 184.450741123819 76.6047182503333 47.3176514887232
    vertex 201.727352543326 73.045629258168 45.3822309563255
    vertex 201.727352543326 76.6047182503333 47.3176514887232
  endloop
endfacet
facet normal 3.64230869320178e-015 -0.197911899658309 0.980219812069537
  outer loop
    vertex 201.727352543326 69.1738969609243 44.1894794692754
    vertex 184.450741123819 73.0456292581681 45.3822309563257
    vertex 184.450741123819 69.1738969609244 44.1894794692755
  endloop
endfacet
facet normal 7.18010586888371e-015 -0.387994330178737 0.921661759947299
  outer loop
    vertex 184.450741123819 73.0456292581681 45.3822309563257
    vertex 201.727352543326 69.1738969609243 44.1894794692754
    vertex 201.727352543326 73.045629258168 45.3822309563255
  endloop
endfacet
facet normal 5.75098213262399e-015 -0.562727559165437 0.826642422184895
  outer loop
    vertex 184.450741123819 76.6047182503333 47.3176514887232
    vertex 201.727352543326 78.1575416447505 48.6184132957405
    vertex 184.450741123819 78.1575416447505 48.6184132957407
  endloop
endfacet
facet normal 4.66424593146206e-015 -0.642146652581901 0.766581813362317
  outer loop
    vertex 201.727352543326 78.1575416447505 48.6184132957405
    vertex 184.450741123819 76.6047182503333 47.3176514887232
    vertex 201.727352543326 76.6047182503333 47.3176514887232
  endloop
endfacet
facet normal -2.48101259523215e-014 1.0 -5.55507864459543e-014
  outer loop
    vertex 184.450741123819 78.1575416447496 40.9023226196112
    vertex 201.727352543326 78.1575416447505 48.6184132957405
    vertex 201.727352543326 78.1575416447505 40.9023226196111
  endloop
endfacet
facet normal -2.48101259523215e-014 1.0 -5.55507864459543e-014
  outer loop
    vertex 201.727352543326 78.1575416447505 48.6184132957405
    vertex 184.450741123819 78.1575416447496 40.9023226196112
    vertex 184.450741123819 78.1575416447505 48.6184132957407
  endloop
endfacet
facet normal 1.0 7.47461857446373e-015 -3.89718552883265e-014
  outer loop
    vertex 109.079798635551 49.3103400322378 15.6865827247094
    vertex 109.079798635552 46.1926885435145 21.8538928577834
    vertex 109.079798635552 46.1926885435145 18.9042342134325
  endloop
endfacet
facet normal 1.0 7.47461857446373e-015 -3.89718552883265e-014
  outer loop
    vertex 109.079798635552 46.1926885435145 21.8538928577834
    vertex 109.079798635551 49.3103400322378 15.6865827247094
    vertex 109.079798635551 52.4279915209612 15.6865827247094
  endloop
endfacet
facet normal -1.0 -3.73730928723163e-015 1.94859276441627e-014
  outer loop
    vertex 121.133793720573 52.4279915209612 15.6865827247093
    vertex 121.133793720573 46.1926885435145 18.9042342134325
    vertex 121.133793720573 46.1926885435145 21.8538928577834
  endloop
endfacet
facet normal -1.0 -3.73730928723163e-015 1.94859276441627e-014
  outer loop
    vertex 121.133793720573 46.1926885435145 18.9042342134325
    vertex 121.133793720573 52.4279915209612 15.6865827247093
    vertex 121.133793720573 49.3103400322378 15.6865827247093
  endloop
endfacet
facet normal -1.0 3.73730928723146e-015 1.94859276441628e-014
  outer loop
    vertex 121.133793720573 84.0926885435143 21.8538928577834
    vertex 121.133793720573 80.9750370547909 15.6865827247093
    vertex 121.133793720573 77.8573855660675 15.6865827247093
  endloop
endfacet
facet normal -1.0 3.73730928723146e-015 1.94859276441628e-014
  outer loop
    vertex 121.133793720573 80.9750370547909 15.6865827247093
    vertex 121.133793720573 84.0926885435143 21.8538928577834
    vertex 121.133793720573 84.0926885435143 18.9042342134325
  endloop
endfacet
facet normal 1.0 -7.47461857446356e-015 -3.89718552883266e-014
  outer loop
    vertex 109.079798635551 80.9750370547909 15.6865827247094
    vertex 109.079798635552 84.0926885435143 21.8538928577834
    vertex 109.079798635551 77.8573855660675 15.6865827247094
  endloop
endfacet
facet normal 1.0 -7.47461857446356e-015 -3.89718552883266e-014
  outer loop
    vertex 109.079798635552 84.0926885435143 21.8538928577834
    vertex 109.079798635551 80.9750370547909 15.6865827247094
    vertex 109.079798635552 84.0926885435143 18.9042342134325
  endloop
endfacet
facet normal -3.00287556775356e-015 0.703219756641055 -0.710972554934222
  outer loop
    vertex 109.079798635552 84.0926885435143 21.8538928577834
    vertex 121.133793720573 77.8573855660675 15.6865827247093
    vertex 109.079798635551 77.8573855660675 15.6865827247094
  endloop
endfacet
facet normal -3.00287556775356e-015 0.703219756641055 -0.710972554934222
  outer loop
    vertex 121.133793720573 77.8573855660675 15.6865827247093
    vertex 109.079798635552 84.0926885435143 21.8538928577834
    vertex 121.133793720573 84.0926885435143 21.8538928577834
  endloop
endfacet
facet normal -1.0 1.23323942667847e-014 1.3824285484939e-014
  outer loop
    vertex 163.884966768997 84.0926885435143 21.8538928577835
    vertex 163.884966768997 80.9750370547909 15.6865827247092
    vertex 163.884966768997 77.8573855660675 15.6865827247092
  endloop
endfacet
facet normal -1.0 1.23323942667847e-014 1.3824285484939e-014
  outer loop
    vertex 163.884966768997 80.9750370547909 15.6865827247092
    vertex 163.884966768997 84.0926885435143 21.8538928577835
    vertex 163.884966768997 84.0926885435143 18.9042342134325
  endloop
endfacet
facet normal 2.65672612481734e-015 -0.703219756641079 -0.710972554934199
  outer loop
    vertex 151.830971683976 52.4279915209612 15.6865827247091
    vertex 163.884966768997 46.1926885435145 21.8538928577835
    vertex 151.830971683976 46.1926885435145 21.8538928577836
  endloop
endfacet
facet normal 2.65672612481734e-015 -0.703219756641079 -0.710972554934199
  outer loop
    vertex 163.884966768997 46.1926885435145 21.8538928577835
    vertex 151.830971683976 52.4279915209612 15.6865827247091
    vertex 163.884966768997 52.4279915209612 15.6865827247092
  endloop
endfacet
facet normal 3.96754322554736e-015 0.703219756641076 -0.710972554934202
  outer loop
    vertex 163.884966768997 84.0926885435143 21.8538928577835
    vertex 151.830971683976 77.8573855660675 15.6865827247091
    vertex 151.830971683976 84.0926885435143 21.8538928577836
  endloop
endfacet
facet normal 3.96754322554736e-015 0.703219756641076 -0.710972554934202
  outer loop
    vertex 151.830971683976 77.8573855660675 15.6865827247091
    vertex 163.884966768997 84.0926885435143 21.8538928577835
    vertex 163.884966768997 77.8573855660675 15.6865827247092
  endloop
endfacet
facet normal 1.0 3.28863847114234e-014 3.68647612931722e-014
  outer loop
    vertex 151.830971683976 80.9750370547909 15.6865827247091
    vertex 151.830971683976 84.0926885435143 21.8538928577836
    vertex 151.830971683976 77.8573855660675 15.6865827247091
  endloop
endfacet
facet normal 1.0 3.28863847114234e-014 3.68647612931722e-014
  outer loop
    vertex 151.830971683976 84.0926885435143 21.8538928577836
    vertex 151.830971683976 80.9750370547909 15.6865827247091
    vertex 151.830971683976 84.0926885435143 18.9042342134327
  endloop
endfacet
facet normal -1.0 -1.23323942667851e-014 1.38242854849387e-014
  outer loop
    vertex 163.884966768997 52.4279915209612 15.6865827247092
    vertex 163.884966768997 46.1926885435145 18.9042342134325
    vertex 163.884966768997 46.1926885435145 21.8538928577835
  endloop
endfacet
facet normal -1.0 -1.23323942667851e-014 1.38242854849387e-014
  outer loop
    vertex 163.884966768997 46.1926885435145 18.9042342134325
    vertex 163.884966768997 52.4279915209612 15.6865827247092
    vertex 163.884966768997 49.3103400322378 15.6865827247092
  endloop
endfacet
facet normal 1.0 -3.28863847114241e-014 3.68647612931716e-014
  outer loop
    vertex 151.830971683976 49.3103400322378 15.6865827247091
    vertex 151.830971683976 46.1926885435145 21.8538928577836
    vertex 151.830971683976 46.1926885435145 18.9042342134327
  endloop
endfacet
facet normal 1.0 -3.28863847114241e-014 3.68647612931716e-014
  outer loop
    vertex 151.830971683976 46.1926885435145 21.8538928577836
    vertex 151.830971683976 49.3103400322378 15.6865827247091
    vertex 151.830971683976 52.4279915209612 15.6865827247091
  endloop
endfacet
facet normal -0.668438427751834 0.660800803381614 -0.341368373688703
  outer loop
    vertex 73.653575589439 84.0926885435143 18.9042342134325
    vertex 70.4273525433265 80.9750370547909 19.1865827247092
    vertex 68.6273525433264 82.2397090704141 25.1592668133371
  endloop
endfacet
facet normal -0.522983040755018 0.477238280924921 -0.706209857126379
  outer loop
    vertex 75.1535755894389 80.9750370547909 15.6865827247092
    vertex 70.4273525433265 80.9750370547909 19.1865827247092
    vertex 73.653575589439 84.0926885435143 18.9042342134325
  endloop
endfacet
facet normal -0.522983040755018 -0.477238280924922 -0.706209857126379
  outer loop
    vertex 75.1535755894389 49.3103400322378 15.6865827247092
    vertex 73.653575589439 46.1926885435145 18.9042342134325
    vertex 70.4273525433265 49.3103400322378 19.1865827247092
  endloop
endfacet
facet normal -3.98499427173083e-015 -0.703219756641059 -0.710972554934218
  outer loop
    vertex 121.133793720573 52.4279915209612 15.6865827247093
    vertex 109.079798635552 46.1926885435145 21.8538928577834
    vertex 109.079798635551 52.4279915209612 15.6865827247094
  endloop
endfacet
facet normal -3.98499427173083e-015 -0.703219756641059 -0.710972554934218
  outer loop
    vertex 109.079798635552 46.1926885435145 21.8538928577834
    vertex 121.133793720573 52.4279915209612 15.6865827247093
    vertex 121.133793720573 46.1926885435145 21.8538928577834
  endloop
endfacet
facet normal 4.75852894609653e-015 0.718178691522431 -0.695858726354084
  outer loop
    vertex 163.884966768997 84.0926885435143 18.9042342134325
    vertex 188.008549632795 80.9750370547909 15.6865827247093
    vertex 163.884966768997 80.9750370547909 15.6865827247092
  endloop
endfacet
facet normal 4.75852894609653e-015 0.718178691522431 -0.695858726354084
  outer loop
    vertex 188.008549632795 80.9750370547909 15.6865827247093
    vertex 163.884966768997 84.0926885435143 18.9042342134325
    vertex 185.954383044198 84.0926885435143 18.9042342134327
  endloop
endfacet
facet normal 1.25671812261157e-016 0.718178691522446 -0.695858726354069
  outer loop
    vertex 121.133793720573 80.9750370547909 15.6865827247093
    vertex 151.830971683976 84.0926885435143 18.9042342134327
    vertex 151.830971683976 80.9750370547909 15.6865827247091
  endloop
endfacet
facet normal 1.25671812261157e-016 0.718178691522446 -0.695858726354069
  outer loop
    vertex 151.830971683976 84.0926885435143 18.9042342134327
    vertex 121.133793720573 80.9750370547909 15.6865827247093
    vertex 121.133793720573 84.0926885435143 18.9042342134325
  endloop
endfacet
facet normal 1.25671812261158e-016 -0.718178691522447 -0.695858726354068
  outer loop
    vertex 151.830971683976 46.1926885435145 18.9042342134327
    vertex 121.133793720573 49.3103400322378 15.6865827247093
    vertex 151.830971683976 49.3103400322378 15.6865827247091
  endloop
endfacet
facet normal 1.25671812261158e-016 -0.718178691522447 -0.695858726354068
  outer loop
    vertex 121.133793720573 49.3103400322378 15.6865827247093
    vertex 151.830971683976 46.1926885435145 18.9042342134327
    vertex 121.133793720573 46.1926885435145 18.9042342134325
  endloop
endfacet
facet normal -1.0 -2.30061894010022e-014 1.47631357666003e-015
  outer loop
    vertex 184.45074112382 52.1278354422741 40.9023226196066
    vertex 184.450741123819 49.3103400322378 23.4218857021562
    vertex 184.450741123822 49.3103400322343 40.9023226196065
  endloop
endfacet
facet normal -1.0 -2.30061894010022e-014 1.47631357666003e-015
  outer loop
    vertex 184.450741123819 49.3103400322378 23.4218857021562
    vertex 184.45074112382 52.1278354422741 40.9023226196066
    vertex 184.450741123819 52.4279915209613 20.3042342134325
  endloop
endfacet
facet normal -1.0 -2.30061894010022e-014 1.47631357666003e-015
  outer loop
    vertex 184.450741123819 52.4279915209613 20.3042342134325
    vertex 184.45074112382 52.1278354422741 40.9023226196066
    vertex 184.450741123819 52.1278354422782 48.6184132957409
  endloop
endfacet
facet normal -1.0 -2.30061894010022e-014 1.47631357666003e-015
  outer loop
    vertex 184.450741123819 52.4279915209613 20.3042342134325
    vertex 184.450741123819 52.1278354422782 48.6184132957409
    vertex 184.450741123819 53.6806588366954 47.3176514887233
  endloop
endfacet
facet normal -1.0 -2.30061894010022e-014 1.47631357666003e-015
  outer loop
    vertex 184.450741123819 52.4279915209613 20.3042342134325
    vertex 184.450741123819 53.6806588366954 47.3176514887233
    vertex 184.450741123819 77.8573855660676 20.3042342134326
  endloop
endfacet
facet normal -1.0 -2.30061894010022e-014 1.47631357666003e-015
  outer loop
    vertex 184.450741123819 77.8573855660676 20.3042342134326
    vertex 184.450741123819 53.6806588366954 47.3176514887233
    vertex 184.450741123819 57.2397478288608 45.3822309563257
  endloop
endfacet
facet normal -1.0 -2.30061894010022e-014 1.47631357666003e-015
  outer loop
    vertex 184.450741123819 77.8573855660676 20.3042342134326
    vertex 184.450741123819 57.2397478288608 45.3822309563257
    vertex 184.450741123819 61.1114801261044 44.1894794692755
  endloop
endfacet
facet normal -1.0 -2.30061894010022e-014 1.47631357666003e-015
  outer loop
    vertex 184.450741123819 77.8573855660676 20.3042342134326
    vertex 184.450741123819 61.1114801261044 44.1894794692755
    vertex 184.450741123819 63.1270843348093 43.9880310969923
  endloop
endfacet
facet normal -1.0 -2.30061894010022e-014 1.47631357666003e-015
  outer loop
    vertex 184.450741123819 77.8573855660676 20.3042342134326
    vertex 184.450741123819 63.1270843348093 43.9880310969923
    vertex 184.450741123819 67.1582927522193 43.9880310969923
  endloop
endfacet
facet normal -1.0 -2.30061894010022e-014 1.47631357666003e-015
  outer loop
    vertex 184.450741123819 77.8573855660676 20.3042342134326
    vertex 184.450741123819 67.1582927522193 43.9880310969923
    vertex 184.450741123819 69.1738969609244 44.1894794692755
  endloop
endfacet
facet normal -1.0 -2.30061894010022e-014 1.47631357666003e-015
  outer loop
    vertex 184.450741123819 77.8573855660676 20.3042342134326
    vertex 184.450741123819 69.1738969609244 44.1894794692755
    vertex 184.450741123819 73.0456292581681 45.3822309563257
  endloop
endfacet
facet normal -1.0 -2.30061894010022e-014 1.47631357666003e-015
  outer loop
    vertex 184.450741123819 77.8573855660676 20.3042342134326
    vertex 184.450741123819 73.0456292581681 45.3822309563257
    vertex 184.450741123819 76.6047182503333 47.3176514887232
  endloop
endfacet
facet normal -1.0 -2.30061894010022e-014 1.47631357666003e-015
  outer loop
    vertex 184.450741123819 77.8573855660676 20.3042342134326
    vertex 184.450741123819 76.6047182503333 47.3176514887232
    vertex 184.450741123819 78.1575416447505 48.6184132957407
  endloop
endfacet
facet normal -1.0 -2.30061894010022e-014 1.47631357666003e-015
  outer loop
    vertex 184.450741123819 77.8573855660676 20.3042342134326
    vertex 184.450741123819 78.1575416447505 48.6184132957407
    vertex 184.450741123819 78.1575416447496 40.9023226196112
  endloop
endfacet
facet normal -1.0 -2.30061894010022e-014 1.47631357666003e-015
  outer loop
    vertex 184.450741123819 78.1575416447496 40.9023226196112
    vertex 184.450741123819 80.9750370547909 23.4218857021562
    vertex 184.450741123819 77.8573855660676 20.3042342134326
  endloop
endfacet
facet normal -1.0 -2.30061894010022e-014 1.47631357666003e-015
  outer loop
    vertex 184.450741123819 80.9750370547909 23.4218857021562
    vertex 184.450741123819 78.1575416447496 40.9023226196112
    vertex 184.450741123819 80.97503705479 40.9023226196112
  endloop
endfacet
facet normal -0.668438427751832 -0.660800803381614 -0.341368373688705
  outer loop
    vertex 70.4273525433265 49.3103400322378 19.1865827247092
    vertex 73.653575589439 46.1926885435145 18.9042342134325
    vertex 68.6273525433264 48.0456680166147 25.1592668133371
  endloop
endfacet
facet normal -1.0 -1.49879243359909e-015 -5.03574220509121e-016
  outer loop
    vertex 68.6273525433264 76.6047182503333 47.3176514887233
    vertex 68.6273525433263 74.7016323437588 30.9458598630999
    vertex 68.6273525433263 74.7016323437588 46.2827598221735
  endloop
endfacet
facet normal -1.0 -1.49879243359909e-015 -5.03574220509121e-016
  outer loop
    vertex 68.6273525433264 49.3103400322378 51.5015298246029
    vertex 68.6273525433264 48.0456680166147 25.1592668133371
    vertex 68.6273525433264 48.0456680166147 53.0838845464479
  endloop
endfacet
facet normal -1.0 -1.49879243359909e-015 -5.03574220509121e-016
  outer loop
    vertex 68.6273525433264 48.0456680166147 25.1592668133371
    vertex 68.6273525433264 49.3103400322378 51.5015298246029
    vertex 68.6273525433263 55.4016323437588 30.9458598630999
  endloop
endfacet
facet normal -1.0 -1.49879243359909e-015 -5.03574220509121e-016
  outer loop
    vertex 68.6273525433264 48.0456680166147 25.1592668133371
    vertex 68.6273525433263 55.4016323437588 30.9458598630999
    vertex 68.6273525433264 82.2397090704141 25.1592668133371
  endloop
endfacet
facet normal -1.0 -1.49879243359909e-015 -5.03574220509121e-016
  outer loop
    vertex 68.6273525433263 55.4016323437588 30.9458598630999
    vertex 68.6273525433264 49.3103400322378 51.5015298246029
    vertex 68.6273525433264 50.575012047861 49.9191751027581
  endloop
endfacet
facet normal -1.0 -1.49879243359909e-015 -5.03574220509121e-016
  outer loop
    vertex 68.6273525433263 55.4016323437588 30.9458598630999
    vertex 68.6273525433264 50.575012047861 49.9191751027581
    vertex 68.6273525433264 53.6806588366954 47.3176514887233
  endloop
endfacet
facet normal -1.0 -1.49879243359909e-015 -5.03574220509121e-016
  outer loop
    vertex 68.6273525433263 55.4016323437588 30.9458598630999
    vertex 68.6273525433264 53.6806588366954 47.3176514887233
    vertex 68.6273525433263 55.4016323437588 46.3817919278594
  endloop
endfacet
facet normal -1.0 -1.49879243359909e-015 -5.03574220509121e-016
  outer loop
    vertex 68.6273525433264 82.2397090704141 25.1592668133371
    vertex 68.6273525433263 55.4016323437588 30.9458598630999
    vertex 68.6273525433263 74.7016323437588 30.9458598630999
  endloop
endfacet
facet normal -1.0 -1.49879243359909e-015 -5.03574220509121e-016
  outer loop
    vertex 68.6273525433264 82.2397090704141 25.1592668133371
    vertex 68.6273525433263 74.7016323437588 30.9458598630999
    vertex 68.6273525433264 76.6047182503333 47.3176514887233
  endloop
endfacet
facet normal -1.0 -1.49879243359909e-015 -5.03574220509121e-016
  outer loop
    vertex 68.6273525433264 82.2397090704141 25.1592668133371
    vertex 68.6273525433264 76.6047182503333 47.3176514887233
    vertex 68.6273525433264 79.7103650391677 49.9191751027581
  endloop
endfacet
facet normal -1.0 -1.49879243359909e-015 -5.03574220509121e-016
  outer loop
    vertex 68.6273525433264 82.2397090704141 25.1592668133371
    vertex 68.6273525433264 79.7103650391677 49.9191751027581
    vertex 68.6273525433263 80.9750370547909 51.5015298246029
  endloop
endfacet
facet normal -1.0 -1.49879243359909e-015 -5.03574220509121e-016
  outer loop
    vertex 68.6273525433264 82.2397090704141 25.1592668133371
    vertex 68.6273525433263 80.9750370547909 51.5015298246029
    vertex 68.6273525433263 82.2397090704141 53.0838845464479
  endloop
endfacet
facet normal -0.957463963460595 -1.27076494189114e-018 -0.288552869807821
  outer loop
    vertex 68.6273525433264 82.2397090704141 25.1592668133371
    vertex 70.4273525433265 49.3103400322378 19.1865827247092
    vertex 68.6273525433264 48.0456680166147 25.1592668133371
  endloop
endfacet
facet normal -0.957463963460595 -1.27076494189114e-018 -0.288552869807821
  outer loop
    vertex 70.4273525433265 49.3103400322378 19.1865827247092
    vertex 68.6273525433264 82.2397090704141 25.1592668133371
    vertex 70.4273525433265 80.9750370547909 19.1865827247092
  endloop
endfacet
facet normal -0.345904740137847 0.938269636485253 -1.76637121221399e-015
  outer loop
    vertex 68.6273525433264 82.2397090704141 25.1592668133371
    vertex 73.6535755894389 84.0926885435143 53.0838845464478
    vertex 73.653575589439 84.0926885435143 18.9042342134325
  endloop
endfacet
facet normal -0.345904740137847 0.938269636485253 -1.76637121221399e-015
  outer loop
    vertex 73.6535755894389 84.0926885435143 53.0838845464478
    vertex 68.6273525433264 82.2397090704141 25.1592668133371
    vertex 68.6273525433263 82.2397090704141 53.0838845464479
  endloop
endfacet
facet normal -0.345904740137844 -0.938269636485254 -1.31811042236331e-015
  outer loop
    vertex 73.6535755894389 46.1926885435145 53.0838845464478
    vertex 68.6273525433264 48.0456680166147 25.1592668133371
    vertex 73.653575589439 46.1926885435145 18.9042342134325
  endloop
endfacet
facet normal -0.345904740137844 -0.938269636485254 -1.31811042236331e-015
  outer loop
    vertex 68.6273525433264 48.0456680166147 25.1592668133371
    vertex 73.6535755894389 46.1926885435145 53.0838845464478
    vertex 68.6273525433264 48.0456680166147 53.0838845464479
  endloop
endfacet
facet normal 0.787860222612899 2.2830791865615e-014 -0.615854097676027
  outer loop
    vertex 188.008549632795 52.1278354422781 15.6865827247093
    vertex 201.727352543326 49.3103400322379 33.2370044168923
    vertex 188.008549632795 49.3103400322378 15.6865827247093
  endloop
endfacet
facet normal 0.787860222612899 2.2830791865615e-014 -0.615854097676027
  outer loop
    vertex 201.727352543326 49.3103400322379 33.2370044168923
    vertex 188.008549632795 52.1278354422781 15.6865827247093
    vertex 201.727352543326 52.1278354422782 33.2370044168922
  endloop
endfacet
facet normal 0.515771808651674 -0.755933098910001 -0.403168192411682
  outer loop
    vertex 201.727352543326 49.3103400322379 33.2370044168923
    vertex 185.954383044198 46.1926885435145 18.9042342134327
    vertex 188.008549632795 49.3103400322378 15.6865827247093
  endloop
endfacet
facet normal 0.515771808651674 -0.755933098910001 -0.403168192411682
  outer loop
    vertex 185.954383044198 46.1926885435145 18.9042342134327
    vertex 201.727352543326 49.3103400322379 33.2370044168923
    vertex 201.727352543326 46.1926885435145 39.0825448031385
  endloop
endfacet
facet normal 2.28482597550258e-015 -0.718178691522438 -0.695858726354077
  outer loop
    vertex 188.008549632795 49.3103400322378 15.6865827247093
    vertex 163.884966768997 46.1926885435145 18.9042342134325
    vertex 163.884966768997 49.3103400322378 15.6865827247092
  endloop
endfacet
facet normal 2.28482597550258e-015 -0.718178691522438 -0.695858726354077
  outer loop
    vertex 163.884966768997 46.1926885435145 18.9042342134325
    vertex 188.008549632795 49.3103400322378 15.6865827247093
    vertex 185.954383044198 46.1926885435145 18.9042342134327
  endloop
endfacet
facet normal 0.515771808651686 0.755933098909986 -0.403168192411696
  outer loop
    vertex 185.954383044198 84.0926885435143 18.9042342134327
    vertex 201.727352543326 80.9750370547909 33.2370044168925
    vertex 188.008549632795 80.9750370547909 15.6865827247093
  endloop
endfacet
facet normal 0.515771808651686 0.755933098909986 -0.403168192411696
  outer loop
    vertex 201.727352543326 80.9750370547909 33.2370044168925
    vertex 185.954383044198 84.0926885435143 18.9042342134327
    vertex 201.727352543326 84.0926885435143 39.0825448031377
  endloop
endfacet
facet normal 0.528279658888325 0.741887298548917 -0.412945321146305
  outer loop
    vertex 201.727352543327 55.3815487175872 39.0825448031384
    vertex 188.008549632795 52.1278354422781 15.6865827247093
    vertex 183.43921119347 55.3815487175872 15.6865827247093
  endloop
endfacet
facet normal 0.528279658888325 0.741887298548917 -0.412945321146305
  outer loop
    vertex 188.008549632795 52.1278354422781 15.6865827247093
    vertex 201.727352543327 55.3815487175872 39.0825448031384
    vertex 201.727352543326 52.1278354422782 33.2370044168922
  endloop
endfacet
facet normal 0.787860222612884 1.13409977940485e-014 -0.615854097676046
  outer loop
    vertex 183.43921119347 74.9038283694414 15.6865827247093
    vertex 201.727352543327 55.3815487175872 39.0825448031384
    vertex 183.43921119347 55.3815487175872 15.6865827247093
  endloop
endfacet
facet normal 0.787860222612884 1.13409977940485e-014 -0.615854097676046
  outer loop
    vertex 201.727352543327 55.3815487175872 39.0825448031384
    vertex 183.43921119347 74.9038283694414 15.6865827247093
    vertex 201.727352543326 74.9038283694415 39.0825448031377
  endloop
endfacet
facet normal 0.528279658888343 -0.741887298548903 -0.412945321146307
  outer loop
    vertex 188.008549632795 78.1575416447505 15.6865827247093
    vertex 201.727352543326 74.9038283694415 39.0825448031377
    vertex 183.43921119347 74.9038283694414 15.6865827247093
  endloop
endfacet
facet normal 0.528279658888343 -0.741887298548903 -0.412945321146307
  outer loop
    vertex 201.727352543326 74.9038283694415 39.0825448031377
    vertex 188.008549632795 78.1575416447505 15.6865827247093
    vertex 201.727352543325 78.1575416447505 33.2370044168926
  endloop
endfacet
facet normal -3.59093928257285e-015 4.19720271028755e-015 1.0
  outer loop
    vertex 201.727352543325 63.1270843348093 43.9880310969924
    vertex 184.450741123819 67.1582927522193 43.9880310969923
    vertex 184.450741123819 63.1270843348093 43.9880310969923
  endloop
endfacet
facet normal -3.59093928257285e-015 4.19720271028755e-015 1.0
  outer loop
    vertex 184.450741123819 67.1582927522193 43.9880310969923
    vertex 201.727352543325 63.1270843348093 43.9880310969924
    vertex 201.727352543325 67.1582927522193 43.9880310969924
  endloop
endfacet
facet normal 1.0 -1.16336142267496e-016 8.21195894854035e-016
  outer loop
    vertex 74.1450040320496 49.3103400322378 23.4218857021561
    vertex 74.1450040320497 50.5750120478609 49.9191751027581
    vertex 74.1450040320498 49.3103400322378 51.501529824603
  endloop
endfacet
facet normal 1.0 -1.16336142267496e-016 8.21195894854035e-016
  outer loop
    vertex 74.1450040320497 50.5750120478609 49.9191751027581
    vertex 74.1450040320496 49.3103400322378 23.4218857021561
    vertex 74.1450040320498 52.4279915209612 20.3042342134327
  endloop
endfacet
facet normal 1.0 -1.16336142267496e-016 8.21195894854035e-016
  outer loop
    vertex 74.1450040320497 50.5750120478609 49.9191751027581
    vertex 74.1450040320498 52.4279915209612 20.3042342134327
    vertex 74.1450040320496 53.6806588366954 47.3176514887234
  endloop
endfacet
facet normal 1.0 -1.16336142267496e-016 8.21195894854035e-016
  outer loop
    vertex 74.1450040320496 53.6806588366954 47.3176514887234
    vertex 74.1450040320498 52.4279915209612 20.3042342134327
    vertex 74.1450040320498 55.4016323437588 30.9458598631
  endloop
endfacet
facet normal 1.0 -1.16336142267496e-016 8.21195894854035e-016
  outer loop
    vertex 74.1450040320498 55.4016323437588 30.9458598631
    vertex 74.1450040320498 52.4279915209612 20.3042342134327
    vertex 74.1450040320498 77.8573855660675 20.3042342134327
  endloop
endfacet
facet normal 1.0 -1.16336142267496e-016 8.21195894854035e-016
  outer loop
    vertex 74.1450040320498 55.4016323437588 30.9458598631
    vertex 74.1450040320498 77.8573855660675 20.3042342134327
    vertex 74.1450040320498 74.7016323437588 30.9458598631
  endloop
endfacet
facet normal 1.0 -1.16336142267496e-016 8.21195894854035e-016
  outer loop
    vertex 74.1450040320498 74.7016323437588 30.9458598631
    vertex 74.1450040320498 77.8573855660675 20.3042342134327
    vertex 74.1450040320496 74.7016323437588 46.2827598221735
  endloop
endfacet
facet normal 1.0 -1.16336142267496e-016 8.21195894854035e-016
  outer loop
    vertex 74.1450040320496 74.7016323437588 46.2827598221735
    vertex 74.1450040320498 77.8573855660675 20.3042342134327
    vertex 74.1450040320496 76.6047182503333 47.3176514887234
  endloop
endfacet
facet normal 1.0 -1.16336142267496e-016 8.21195894854035e-016
  outer loop
    vertex 74.1450040320496 76.6047182503333 47.3176514887234
    vertex 74.1450040320498 77.8573855660675 20.3042342134327
    vertex 74.1450040320497 79.7103650391677 49.9191751027581
  endloop
endfacet
facet normal 1.0 -1.16336142267496e-016 8.21195894854035e-016
  outer loop
    vertex 74.1450040320497 79.7103650391677 49.9191751027581
    vertex 74.1450040320498 77.8573855660675 20.3042342134327
    vertex 74.1450040320496 80.9750370547909 23.4218857021561
  endloop
endfacet
facet normal 1.0 -1.16336142267496e-016 8.21195894854035e-016
  outer loop
    vertex 74.1450040320497 79.7103650391677 49.9191751027581
    vertex 74.1450040320496 80.9750370547909 23.4218857021561
    vertex 74.1450040320499 80.9750370547908 51.501529824603
  endloop
endfacet
facet normal 1.0 -1.16336142267496e-016 8.21195894854035e-016
  outer loop
    vertex 74.1450040320496 55.4016323437588 46.3817919278594
    vertex 74.1450040320496 53.6806588366954 47.3176514887234
    vertex 74.1450040320498 55.4016323437588 30.9458598631
  endloop
endfacet
facet normal -0.0 1.0 -0.0
  outer loop
    vertex 68.6273525433263 55.4016323437588 46.3817919278594
    vertex 74.1450040320498 55.4016323437588 30.9458598631
    vertex 68.6273525433263 55.4016323437588 30.9458598630999
  endloop
endfacet
facet normal -0.0 1.0 -0.0
  outer loop
    vertex 74.1450040320498 55.4016323437588 30.9458598631
    vertex 68.6273525433263 55.4016323437588 46.3817919278594
    vertex 74.1450040320496 55.4016323437588 46.3817919278594
  endloop
endfacet
facet normal -1.63545899239839e-014 -0.0 1.0
  outer loop
    vertex 74.1450040320498 55.4016323437588 30.9458598631
    vertex 68.6273525433263 74.7016323437588 30.9458598630999
    vertex 68.6273525433263 55.4016323437588 30.9458598630999
  endloop
endfacet
facet normal -1.63545899239839e-014 -0.0 1.0
  outer loop
    vertex 68.6273525433263 74.7016323437588 30.9458598630999
    vertex 74.1450040320498 55.4016323437588 30.9458598631
    vertex 74.1450040320498 74.7016323437588 30.9458598631
  endloop
endfacet
facet normal 0.0 -1.0 0.0
  outer loop
    vertex 74.1450040320498 74.7016323437588 30.9458598631
    vertex 68.6273525433263 74.7016323437588 46.2827598221735
    vertex 68.6273525433263 74.7016323437588 30.9458598630999
  endloop
endfacet
facet normal 0.0 -1.0 0.0
  outer loop
    vertex 68.6273525433263 74.7016323437588 46.2827598221735
    vertex 74.1450040320498 74.7016323437588 30.9458598631
    vertex 74.1450040320496 74.7016323437588 46.2827598221735
  endloop
endfacet
facet normal -1.35149896635002e-013 1.0 -1.75595951893989e-013
  outer loop
    vertex 184.450741123819 49.3103400322378 51.5015298246028
    vertex 201.727352543328 49.3103400322383 40.9023226196112
    vertex 184.450741123822 49.3103400322343 40.9023226196065
  endloop
endfacet
facet normal -1.35149896635002e-013 1.0 -1.75595951893989e-013
  outer loop
    vertex 201.727352543328 49.3103400322383 40.9023226196112
    vertex 184.450741123819 49.3103400322378 51.5015298246028
    vertex 201.727352543325 49.3103400322385 51.501529824602
  endloop
endfacet
facet normal 2.3504329849569e-014 -1.0 4.2568715610653e-014
  outer loop
    vertex 201.727352543325 80.9750370547908 51.5015298246028
    vertex 184.450741123819 80.97503705479 40.9023226196112
    vertex 201.727352543326 80.9750370547908 40.9023226196112
  endloop
endfacet
facet normal 2.3504329849569e-014 -1.0 4.2568715610653e-014
  outer loop
    vertex 184.450741123819 80.97503705479 40.9023226196112
    vertex 201.727352543325 80.9750370547908 51.5015298246028
    vertex 184.450741123819 80.9750370547908 51.5015298246028
  endloop
endfacet
facet normal 1.0 1.38885219735451e-014 3.05552635534979e-014
  outer loop
    vertex 201.727352543326 49.3103400322379 33.2370044168923
    vertex 201.727352543325 46.1926885435145 53.0838845464478
    vertex 201.727352543326 46.1926885435145 39.0825448031385
  endloop
endfacet
facet normal 1.0 1.38885219735451e-014 3.05552635534979e-014
  outer loop
    vertex 201.727352543325 46.1926885435145 53.0838845464478
    vertex 201.727352543326 49.3103400322379 33.2370044168923
    vertex 201.727352543325 48.0456680166153 53.0838845464469
  endloop
endfacet
facet normal 1.0 1.38885219735451e-014 3.05552635534979e-014
  outer loop
    vertex 201.727352543325 48.0456680166153 53.0838845464469
    vertex 201.727352543326 49.3103400322379 33.2370044168923
    vertex 201.727352543325 49.3103400322385 51.501529824602
  endloop
endfacet
facet normal 1.0 1.38885219735451e-014 3.05552635534979e-014
  outer loop
    vertex 201.727352543325 49.3103400322385 51.501529824602
    vertex 201.727352543326 49.3103400322379 33.2370044168923
    vertex 201.727352543328 49.3103400322383 40.9023226196112
  endloop
endfacet
facet normal 1.0 1.38885219735451e-014 3.05552635534979e-014
  outer loop
    vertex 201.727352543326 52.1278354422782 33.2370044168922
    vertex 201.727352543328 49.3103400322383 40.9023226196112
    vertex 201.727352543326 49.3103400322379 33.2370044168923
  endloop
endfacet
facet normal 1.0 1.38885219735451e-014 3.05552635534979e-014
  outer loop
    vertex 201.727352543328 49.3103400322383 40.9023226196112
    vertex 201.727352543326 52.1278354422782 33.2370044168922
    vertex 201.727352543327 52.1278354422782 40.9023226196113
  endloop
endfacet
facet normal 1.0 1.38885219735451e-014 3.05552635534979e-014
  outer loop
    vertex 201.727352543327 52.1278354422782 40.9023226196113
    vertex 201.727352543326 52.1278354422782 33.2370044168922
    vertex 201.727352543327 55.3815487175872 39.0825448031384
  endloop
endfacet
facet normal 1.0 1.38885219735451e-014 3.05552635534979e-014
  outer loop
    vertex 201.727352543327 52.1278354422782 40.9023226196113
    vertex 201.727352543327 55.3815487175872 39.0825448031384
    vertex 201.727352543326 53.6806588366954 47.3176514887232
  endloop
endfacet
facet normal 1.0 1.38885219735451e-014 3.05552635534979e-014
  outer loop
    vertex 201.727352543326 53.6806588366954 47.3176514887232
    vertex 201.727352543327 55.3815487175872 39.0825448031384
    vertex 201.727352543326 57.2397478288607 45.3822309563255
  endloop
endfacet
facet normal 1.0 1.38885219735451e-014 3.05552635534979e-014
  outer loop
    vertex 201.727352543326 57.2397478288607 45.3822309563255
    vertex 201.727352543327 55.3815487175872 39.0825448031384
    vertex 201.727352543326 74.9038283694415 39.0825448031377
  endloop
endfacet
facet normal 1.0 1.38885219735451e-014 3.05552635534979e-014
  outer loop
    vertex 201.727352543326 57.2397478288607 45.3822309563255
    vertex 201.727352543326 74.9038283694415 39.0825448031377
    vertex 201.727352543326 61.1114801261043 44.1894794692754
  endloop
endfacet
facet normal 1.0 1.38885219735451e-014 3.05552635534979e-014
  outer loop
    vertex 201.727352543326 61.1114801261043 44.1894794692754
    vertex 201.727352543326 74.9038283694415 39.0825448031377
    vertex 201.727352543325 63.1270843348093 43.9880310969924
  endloop
endfacet
facet normal 1.0 1.38885219735451e-014 3.05552635534979e-014
  outer loop
    vertex 201.727352543325 63.1270843348093 43.9880310969924
    vertex 201.727352543326 74.9038283694415 39.0825448031377
    vertex 201.727352543325 67.1582927522193 43.9880310969924
  endloop
endfacet
facet normal 1.0 1.38885219735451e-014 3.05552635534979e-014
  outer loop
    vertex 201.727352543325 67.1582927522193 43.9880310969924
    vertex 201.727352543326 74.9038283694415 39.0825448031377
    vertex 201.727352543326 69.1738969609243 44.1894794692754
  endloop
endfacet
facet normal 1.0 1.38885219735451e-014 3.05552635534979e-014
  outer loop
    vertex 201.727352543326 69.1738969609243 44.1894794692754
    vertex 201.727352543326 74.9038283694415 39.0825448031377
    vertex 201.727352543326 73.045629258168 45.3822309563255
  endloop
endfacet
facet normal 1.0 1.38885219735451e-014 3.05552635534979e-014
  outer loop
    vertex 201.727352543326 73.045629258168 45.3822309563255
    vertex 201.727352543326 74.9038283694415 39.0825448031377
    vertex 201.727352543326 76.6047182503333 47.3176514887232
  endloop
endfacet
facet normal 1.0 1.38885219735451e-014 3.05552635534979e-014
  outer loop
    vertex 201.727352543326 76.6047182503333 47.3176514887232
    vertex 201.727352543326 74.9038283694415 39.0825448031377
    vertex 201.727352543325 78.1575416447505 33.2370044168926
  endloop
endfacet
facet normal 1.0 1.38885219735451e-014 3.05552635534979e-014
  outer loop
    vertex 201.727352543326 76.6047182503333 47.3176514887232
    vertex 201.727352543325 78.1575416447505 33.2370044168926
    vertex 201.727352543326 78.1575416447505 48.6184132957405
  endloop
endfacet
facet normal 1.0 1.38885219735451e-014 3.05552635534979e-014
  outer loop
    vertex 201.727352543326 78.1575416447505 48.6184132957405
    vertex 201.727352543325 78.1575416447505 33.2370044168926
    vertex 201.727352543326 78.1575416447505 40.9023226196111
  endloop
endfacet
facet normal 1.0 1.38885219735451e-014 3.05552635534979e-014
  outer loop
    vertex 201.727352543326 78.1575416447505 40.9023226196111
    vertex 201.727352543325 78.1575416447505 33.2370044168926
    vertex 201.727352543326 80.9750370547909 33.2370044168925
  endloop
endfacet
facet normal 1.0 1.38885219735451e-014 3.05552635534979e-014
  outer loop
    vertex 201.727352543326 78.1575416447505 40.9023226196111
    vertex 201.727352543326 80.9750370547909 33.2370044168925
    vertex 201.727352543326 80.9750370547908 40.9023226196112
  endloop
endfacet
facet normal 1.0 1.38885219735451e-014 3.05552635534979e-014
  outer loop
    vertex 201.727352543326 80.9750370547908 40.9023226196112
    vertex 201.727352543326 80.9750370547909 33.2370044168925
    vertex 201.727352543325 80.9750370547908 51.5015298246028
  endloop
endfacet
facet normal 1.0 1.38885219735451e-014 3.05552635534979e-014
  outer loop
    vertex 201.727352543325 80.9750370547908 51.5015298246028
    vertex 201.727352543326 80.9750370547909 33.2370044168925
    vertex 201.727352543326 82.2397090704139 53.0838845464476
  endloop
endfacet
facet normal 1.0 1.38885219735451e-014 3.05552635534979e-014
  outer loop
    vertex 201.727352543326 82.2397090704139 53.0838845464476
    vertex 201.727352543326 80.9750370547909 33.2370044168925
    vertex 201.727352543326 84.0926885435143 39.0825448031377
  endloop
endfacet
facet normal 1.0 1.38885219735451e-014 3.05552635534979e-014
  outer loop
    vertex 201.727352543326 82.2397090704139 53.0838845464476
    vertex 201.727352543326 84.0926885435143 39.0825448031377
    vertex 201.727352543325 84.0926885435143 53.0838845464478
  endloop
endfacet
facet normal 1.0 1.38885219735451e-014 3.05552635534979e-014
  outer loop
    vertex 201.727352543326 53.6806588366954 47.3176514887232
    vertex 201.727352543326 52.1278354422781 48.6184132957406
    vertex 201.727352543327 52.1278354422782 40.9023226196113
  endloop
endfacet
facet normal 4.2470401900146e-016 -0.781160534040934 0.624330217158262
  outer loop
    vertex 201.727352543326 82.2397090704139 53.0838845464476
    vertex 184.450741123819 80.9750370547908 51.5015298246028
    vertex 201.727352543325 80.9750370547908 51.5015298246028
  endloop
endfacet
facet normal 4.2470401900146e-016 -0.781160534040934 0.624330217158262
  outer loop
    vertex 184.450741123819 80.9750370547908 51.5015298246028
    vertex 201.727352543326 82.2397090704139 53.0838845464476
    vertex 74.1450040320499 80.9750370547908 51.501529824603
  endloop
endfacet
facet normal 4.2470401900146e-016 -0.781160534040934 0.624330217158262
  outer loop
    vertex 74.1450040320499 80.9750370547908 51.501529824603
    vertex 68.6273525433264 79.7103650391677 49.9191751027581
    vertex 74.1450040320497 79.7103650391677 49.9191751027581
  endloop
endfacet
facet normal -2.54079069679327e-015 -0.71519907440425 0.698920799498272
  outer loop
    vertex 68.6273525433264 79.7103650391677 49.9191751027581
    vertex 74.1450040320499 80.9750370547908 51.501529824603
    vertex 68.6273525433263 80.9750370547909 51.5015298246029
  endloop
endfacet
facet normal 4.2470401900146e-016 -0.781160534040934 0.624330217158262
  outer loop
    vertex 68.6273525433263 80.9750370547909 51.5015298246029
    vertex 74.1450040320499 80.9750370547908 51.501529824603
    vertex 68.6273525433263 82.2397090704141 53.0838845464479
  endloop
endfacet
facet normal 4.2470401900146e-016 -0.781160534040934 0.624330217158262
  outer loop
    vertex 68.6273525433263 82.2397090704141 53.0838845464479
    vertex 74.1450040320499 80.9750370547908 51.501529824603
    vertex 201.727352543326 82.2397090704139 53.0838845464476
  endloop
endfacet
facet normal 1.4971683758105e-015 0.715199074404247 0.698920799498276
  outer loop
    vertex 68.6273525433264 50.575012047861 49.9191751027581
    vertex 74.1450040320498 49.3103400322378 51.501529824603
    vertex 74.1450040320497 50.5750120478609 49.9191751027581
  endloop
endfacet
facet normal 8.69264329800457e-016 0.78116053404094 0.624330217158255
  outer loop
    vertex 74.1450040320498 49.3103400322378 51.501529824603
    vertex 68.6273525433264 50.575012047861 49.9191751027581
    vertex 68.6273525433264 49.3103400322378 51.5015298246029
  endloop
endfacet
facet normal 8.69264329800457e-016 0.78116053404094 0.624330217158255
  outer loop
    vertex 74.1450040320498 49.3103400322378 51.501529824603
    vertex 68.6273525433264 49.3103400322378 51.5015298246029
    vertex 68.6273525433264 48.0456680166147 53.0838845464479
  endloop
endfacet
facet normal 8.69264329800457e-016 0.78116053404094 0.624330217158255
  outer loop
    vertex 74.1450040320498 49.3103400322378 51.501529824603
    vertex 68.6273525433264 48.0456680166147 53.0838845464479
    vertex 201.727352543325 48.0456680166153 53.0838845464469
  endloop
endfacet
facet normal 8.69264329800457e-016 0.78116053404094 0.624330217158255
  outer loop
    vertex 184.450741123819 49.3103400322378 51.5015298246028
    vertex 201.727352543325 48.0456680166153 53.0838845464469
    vertex 201.727352543325 49.3103400322385 51.501529824602
  endloop
endfacet
facet normal 8.69264329800457e-016 0.78116053404094 0.624330217158255
  outer loop
    vertex 201.727352543325 48.0456680166153 53.0838845464469
    vertex 184.450741123819 49.3103400322378 51.5015298246028
    vertex 74.1450040320498 49.3103400322378 51.501529824603
  endloop
endfacet
facet normal -0.595128077685324 0.0 -0.803630867469991
  outer loop
    vertex 75.1535755894389 80.9750370547909 15.6865827247092
    vertex 70.4273525433265 49.3103400322378 19.1865827247092
    vertex 70.4273525433265 80.9750370547909 19.1865827247092
  endloop
endfacet
facet normal -0.595128077685324 0.0 -0.803630867469991
  outer loop
    vertex 70.4273525433265 49.3103400322378 19.1865827247092
    vertex 75.1535755894389 80.9750370547909 15.6865827247092
    vertex 75.1535755894389 49.3103400322378 15.6865827247092
  endloop
endfacet
facet normal 1.06226243222607e-014 1.0 1.10295840855387e-014
  outer loop
    vertex 74.1450040320498 49.3103400322378 51.501529824603
    vertex 184.450741123819 49.3103400322378 23.4218857021562
    vertex 74.1450040320496 49.3103400322378 23.4218857021561
  endloop
endfacet
facet normal 1.06226243222607e-014 1.0 1.10295840855387e-014
  outer loop
    vertex 184.450741123819 49.3103400322378 23.4218857021562
    vertex 74.1450040320498 49.3103400322378 51.501529824603
    vertex 184.450741123822 49.3103400322343 40.9023226196065
  endloop
endfacet
facet normal 1.06226243222607e-014 1.0 1.10295840855387e-014
  outer loop
    vertex 184.450741123822 49.3103400322343 40.9023226196065
    vertex 74.1450040320498 49.3103400322378 51.501529824603
    vertex 184.450741123819 49.3103400322378 51.5015298246028
  endloop
endfacet
facet normal -2.75086647610506e-015 -1.0 -4.25503696985314e-015
  outer loop
    vertex 184.450741123819 80.9750370547909 23.4218857021562
    vertex 74.1450040320499 80.9750370547908 51.501529824603
    vertex 74.1450040320496 80.9750370547909 23.4218857021561
  endloop
endfacet
facet normal -2.75086647610506e-015 -1.0 -4.25503696985314e-015
  outer loop
    vertex 74.1450040320499 80.9750370547908 51.501529824603
    vertex 184.450741123819 80.9750370547909 23.4218857021562
    vertex 184.450741123819 80.97503705479 40.9023226196112
  endloop
endfacet
facet normal -2.75086647610506e-015 -1.0 -4.25503696985314e-015
  outer loop
    vertex 74.1450040320499 80.9750370547908 51.501529824603
    vertex 184.450741123819 80.97503705479 40.9023226196112
    vertex 184.450741123819 80.9750370547908 51.5015298246028
  endloop
endfacet
facet normal 3.98570586559281e-016 -0.707106781186566 0.707106781186529
  outer loop
    vertex 184.450741123819 80.9750370547909 23.4218857021562
    vertex 74.1450040320498 77.8573855660675 20.3042342134327
    vertex 184.450741123819 77.8573855660676 20.3042342134326
  endloop
endfacet
facet normal 3.98570586559281e-016 -0.707106781186566 0.707106781186529
  outer loop
    vertex 74.1450040320498 77.8573855660675 20.3042342134327
    vertex 184.450741123819 80.9750370547909 23.4218857021562
    vertex 74.1450040320496 80.9750370547909 23.4218857021561
  endloop
endfacet
facet normal 1.17599013086041e-015 -2.43966735919894e-015 1.0
  outer loop
    vertex 184.450741123819 52.4279915209613 20.3042342134325
    vertex 74.1450040320498 77.8573855660675 20.3042342134327
    vertex 74.1450040320498 52.4279915209612 20.3042342134327
  endloop
endfacet
facet normal 1.17599013086041e-015 -2.43966735919894e-015 1.0
  outer loop
    vertex 74.1450040320498 77.8573855660675 20.3042342134327
    vertex 184.450741123819 52.4279915209613 20.3042342134325
    vertex 184.450741123819 77.8573855660676 20.3042342134326
  endloop
endfacet
facet normal 2.77145641230102e-015 -0.718178691522429 -0.695858726354087
  outer loop
    vertex 109.079798635551 49.3103400322378 15.6865827247094
    vertex 73.653575589439 46.1926885435145 18.9042342134325
    vertex 75.1535755894389 49.3103400322378 15.6865827247092
  endloop
endfacet
facet normal 2.77145641230102e-015 -0.718178691522429 -0.695858726354087
  outer loop
    vertex 73.653575589439 46.1926885435145 18.9042342134325
    vertex 109.079798635551 49.3103400322378 15.6865827247094
    vertex 109.079798635552 46.1926885435145 18.9042342134325
  endloop
endfacet
facet normal 2.18537397330134e-016 0.707106781186563 0.707106781186532
  outer loop
    vertex 74.1450040320498 52.4279915209612 20.3042342134327
    vertex 184.450741123819 49.3103400322378 23.4218857021562
    vertex 184.450741123819 52.4279915209613 20.3042342134325
  endloop
endfacet
facet normal 2.18537397330134e-016 0.707106781186563 0.707106781186532
  outer loop
    vertex 184.450741123819 49.3103400322378 23.4218857021562
    vertex 74.1450040320498 52.4279915209612 20.3042342134327
    vertex 74.1450040320496 49.3103400322378 23.4218857021561
  endloop
endfacet
facet normal 2.76901689313051e-015 0.718178691522428 -0.695858726354088
  outer loop
    vertex 73.653575589439 84.0926885435143 18.9042342134325
    vertex 109.079798635551 80.9750370547909 15.6865827247094
    vertex 75.1535755894389 80.9750370547909 15.6865827247092
  endloop
endfacet
facet normal 2.76901689313051e-015 0.718178691522428 -0.695858726354088
  outer loop
    vertex 109.079798635551 80.9750370547909 15.6865827247094
    vertex 73.653575589439 84.0926885435143 18.9042342134325
    vertex 109.079798635552 84.0926885435143 18.9042342134325
  endloop
endfacet
facet normal 3.95703546349617e-015 2.42776160895764e-013 1.0
  outer loop
    vertex 73.6535755894389 46.1926885435145 53.0838845464478
    vertex 201.727352543325 48.0456680166153 53.0838845464469
    vertex 68.6273525433264 48.0456680166147 53.0838845464479
  endloop
endfacet
facet normal 3.95703546349617e-015 2.42776160895764e-013 1.0
  outer loop
    vertex 201.727352543325 48.0456680166153 53.0838845464469
    vertex 73.6535755894389 46.1926885435145 53.0838845464478
    vertex 201.727352543325 46.1926885435145 53.0838845464478
  endloop
endfacet
facet normal 1.14078025472147e-015 -4.41591343577341e-014 1.0
  outer loop
    vertex 201.727352543326 82.2397090704139 53.0838845464476
    vertex 73.6535755894389 84.0926885435143 53.0838845464478
    vertex 68.6273525433263 82.2397090704141 53.0838845464479
  endloop
endfacet
facet normal 1.14078025472147e-015 -4.41591343577341e-014 1.0
  outer loop
    vertex 73.6535755894389 84.0926885435143 53.0838845464478
    vertex 201.727352543326 82.2397090704139 53.0838845464476
    vertex 201.727352543325 84.0926885435143 53.0838845464478
  endloop
endfacet
facet normal 0.0 -1.0 0.0
  outer loop
    vertex 151.830971683976 46.1926885435145 18.9042342134327
    vertex 121.133793720573 46.1926885435145 21.8538928577834
    vertex 121.133793720573 46.1926885435145 18.9042342134325
  endloop
endfacet
facet normal 0.0 -1.0 0.0
  outer loop
    vertex 121.133793720573 46.1926885435145 21.8538928577834
    vertex 151.830971683976 46.1926885435145 18.9042342134327
    vertex 151.830971683976 46.1926885435145 21.8538928577836
  endloop
endfacet
facet normal 0.0 -1.0 0.0
  outer loop
    vertex 185.954383044198 46.1926885435145 18.9042342134327
    vertex 163.884966768997 46.1926885435145 21.8538928577835
    vertex 163.884966768997 46.1926885435145 18.9042342134325
  endloop
endfacet
facet normal 0.0 -1.0 0.0
  outer loop
    vertex 163.884966768997 46.1926885435145 21.8538928577835
    vertex 185.954383044198 46.1926885435145 18.9042342134327
    vertex 201.727352543326 46.1926885435145 39.0825448031385
  endloop
endfacet
facet normal 0.0 -1.0 0.0
  outer loop
    vertex 163.884966768997 46.1926885435145 21.8538928577835
    vertex 201.727352543326 46.1926885435145 39.0825448031385
    vertex 151.830971683976 46.1926885435145 21.8538928577836
  endloop
endfacet
facet normal 0.0 -1.0 0.0
  outer loop
    vertex 109.079798635552 46.1926885435145 21.8538928577834
    vertex 73.653575589439 46.1926885435145 18.9042342134325
    vertex 109.079798635552 46.1926885435145 18.9042342134325
  endloop
endfacet
facet normal 0.0 -1.0 0.0
  outer loop
    vertex 73.653575589439 46.1926885435145 18.9042342134325
    vertex 109.079798635552 46.1926885435145 21.8538928577834
    vertex 73.6535755894389 46.1926885435145 53.0838845464478
  endloop
endfacet
facet normal 0.0 -1.0 0.0
  outer loop
    vertex 73.6535755894389 46.1926885435145 53.0838845464478
    vertex 109.079798635552 46.1926885435145 21.8538928577834
    vertex 121.133793720573 46.1926885435145 21.8538928577834
  endloop
endfacet
facet normal 0.0 -1.0 0.0
  outer loop
    vertex 73.6535755894389 46.1926885435145 53.0838845464478
    vertex 121.133793720573 46.1926885435145 21.8538928577834
    vertex 151.830971683976 46.1926885435145 21.8538928577836
  endloop
endfacet
facet normal 0.0 -1.0 0.0
  outer loop
    vertex 73.6535755894389 46.1926885435145 53.0838845464478
    vertex 151.830971683976 46.1926885435145 21.8538928577836
    vertex 201.727352543326 46.1926885435145 39.0825448031385
  endloop
endfacet
facet normal 0.0 -1.0 0.0
  outer loop
    vertex 73.6535755894389 46.1926885435145 53.0838845464478
    vertex 201.727352543326 46.1926885435145 39.0825448031385
    vertex 201.727352543325 46.1926885435145 53.0838845464478
  endloop
endfacet
facet normal -1.50733010360469e-017 1.0 -4.22064957228308e-016
  outer loop
    vertex 73.6535755894389 84.0926885435143 53.0838845464478
    vertex 109.079798635552 84.0926885435143 18.9042342134325
    vertex 73.653575589439 84.0926885435143 18.9042342134325
  endloop
endfacet
facet normal -1.50733010360469e-017 1.0 -4.22064957228308e-016
  outer loop
    vertex 109.079798635552 84.0926885435143 18.9042342134325
    vertex 73.6535755894389 84.0926885435143 53.0838845464478
    vertex 109.079798635552 84.0926885435143 21.8538928577834
  endloop
endfacet
facet normal -1.50733010360469e-017 1.0 -4.22064957228308e-016
  outer loop
    vertex 109.079798635552 84.0926885435143 21.8538928577834
    vertex 73.6535755894389 84.0926885435143 53.0838845464478
    vertex 121.133793720573 84.0926885435143 21.8538928577834
  endloop
endfacet
facet normal -1.50733010360469e-017 1.0 -4.22064957228308e-016
  outer loop
    vertex 121.133793720573 84.0926885435143 21.8538928577834
    vertex 73.6535755894389 84.0926885435143 53.0838845464478
    vertex 151.830971683976 84.0926885435143 21.8538928577836
  endloop
endfacet
facet normal -1.50733010360469e-017 1.0 -4.22064957228308e-016
  outer loop
    vertex 151.830971683976 84.0926885435143 21.8538928577836
    vertex 73.6535755894389 84.0926885435143 53.0838845464478
    vertex 201.727352543326 84.0926885435143 39.0825448031377
  endloop
endfacet
facet normal -1.50733010360469e-017 1.0 -4.22064957228308e-016
  outer loop
    vertex 201.727352543326 84.0926885435143 39.0825448031377
    vertex 73.6535755894389 84.0926885435143 53.0838845464478
    vertex 201.727352543325 84.0926885435143 53.0838845464478
  endloop
endfacet
facet normal -1.50733010360469e-017 1.0 -4.22064957228308e-016
  outer loop
    vertex 163.884966768997 84.0926885435143 21.8538928577835
    vertex 185.954383044198 84.0926885435143 18.9042342134327
    vertex 163.884966768997 84.0926885435143 18.9042342134325
  endloop
endfacet
facet normal -1.50733010360469e-017 1.0 -4.22064957228308e-016
  outer loop
    vertex 185.954383044198 84.0926885435143 18.9042342134327
    vertex 163.884966768997 84.0926885435143 21.8538928577835
    vertex 201.727352543326 84.0926885435143 39.0825448031377
  endloop
endfacet
facet normal -1.50733010360469e-017 1.0 -4.22064957228308e-016
  outer loop
    vertex 201.727352543326 84.0926885435143 39.0825448031377
    vertex 163.884966768997 84.0926885435143 21.8538928577835
    vertex 151.830971683976 84.0926885435143 21.8538928577836
  endloop
endfacet
facet normal -1.50733010360469e-017 1.0 -4.22064957228308e-016
  outer loop
    vertex 121.133793720573 84.0926885435143 21.8538928577834
    vertex 151.830971683976 84.0926885435143 18.9042342134327
    vertex 121.133793720573 84.0926885435143 18.9042342134325
  endloop
endfacet
facet normal -1.50733010360469e-017 1.0 -4.22064957228308e-016
  outer loop
    vertex 151.830971683976 84.0926885435143 18.9042342134327
    vertex 121.133793720573 84.0926885435143 21.8538928577834
    vertex 151.830971683976 84.0926885435143 21.8538928577836
  endloop
endfacet
facet normal -2.58071121040597e-016 5.84471775599283e-016 -1.0
  outer loop
    vertex 163.884966768997 77.8573855660675 15.6865827247092
    vertex 151.830971683976 52.4279915209612 15.6865827247091
    vertex 151.830971683976 77.8573855660675 15.6865827247091
  endloop
endfacet
facet normal -2.58071121040597e-016 5.84471775599283e-016 -1.0
  outer loop
    vertex 151.830971683976 52.4279915209612 15.6865827247091
    vertex 163.884966768997 77.8573855660675 15.6865827247092
    vertex 163.884966768997 52.4279915209612 15.6865827247092
  endloop
endfacet
facet normal -2.58071121040597e-016 5.84471775599283e-016 -1.0
  outer loop
    vertex 151.830971683976 80.9750370547909 15.6865827247091
    vertex 121.133793720573 77.8573855660675 15.6865827247093
    vertex 121.133793720573 80.9750370547909 15.6865827247093
  endloop
endfacet
facet normal -2.58071121040597e-016 5.84471775599283e-016 -1.0
  outer loop
    vertex 121.133793720573 77.8573855660675 15.6865827247093
    vertex 151.830971683976 80.9750370547909 15.6865827247091
    vertex 121.133793720573 52.4279915209612 15.6865827247093
  endloop
endfacet
facet normal -2.58071121040597e-016 5.84471775599283e-016 -1.0
  outer loop
    vertex 121.133793720573 52.4279915209612 15.6865827247093
    vertex 151.830971683976 80.9750370547909 15.6865827247091
    vertex 121.133793720573 49.3103400322378 15.6865827247093
  endloop
endfacet
facet normal -2.58071121040597e-016 5.84471775599283e-016 -1.0
  outer loop
    vertex 121.133793720573 49.3103400322378 15.6865827247093
    vertex 151.830971683976 80.9750370547909 15.6865827247091
    vertex 151.830971683976 49.3103400322378 15.6865827247091
  endloop
endfacet
facet normal -2.58071121040597e-016 5.84471775599283e-016 -1.0
  outer loop
    vertex 151.830971683976 49.3103400322378 15.6865827247091
    vertex 151.830971683976 80.9750370547909 15.6865827247091
    vertex 151.830971683976 77.8573855660675 15.6865827247091
  endloop
endfacet
facet normal -2.58071121040597e-016 5.84471775599283e-016 -1.0
  outer loop
    vertex 151.830971683976 49.3103400322378 15.6865827247091
    vertex 151.830971683976 77.8573855660675 15.6865827247091
    vertex 151.830971683976 52.4279915209612 15.6865827247091
  endloop
endfacet
facet normal -2.58071121040597e-016 5.84471775599283e-016 -1.0
  outer loop
    vertex 121.133793720573 77.8573855660675 15.6865827247093
    vertex 109.079798635551 52.4279915209612 15.6865827247094
    vertex 109.079798635551 77.8573855660675 15.6865827247094
  endloop
endfacet
facet normal -2.58071121040597e-016 5.84471775599283e-016 -1.0
  outer loop
    vertex 109.079798635551 52.4279915209612 15.6865827247094
    vertex 121.133793720573 77.8573855660675 15.6865827247093
    vertex 121.133793720573 52.4279915209612 15.6865827247093
  endloop
endfacet
facet normal -2.58071121040597e-016 5.84471775599283e-016 -1.0
  outer loop
    vertex 109.079798635551 80.9750370547909 15.6865827247094
    vertex 75.1535755894389 49.3103400322378 15.6865827247092
    vertex 75.1535755894389 80.9750370547909 15.6865827247092
  endloop
endfacet
facet normal -2.58071121040597e-016 5.84471775599283e-016 -1.0
  outer loop
    vertex 75.1535755894389 49.3103400322378 15.6865827247092
    vertex 109.079798635551 80.9750370547909 15.6865827247094
    vertex 109.079798635551 49.3103400322378 15.6865827247094
  endloop
endfacet
facet normal -2.58071121040597e-016 5.84471775599283e-016 -1.0
  outer loop
    vertex 109.079798635551 49.3103400322378 15.6865827247094
    vertex 109.079798635551 80.9750370547909 15.6865827247094
    vertex 109.079798635551 77.8573855660675 15.6865827247094
  endloop
endfacet
facet normal -2.58071121040597e-016 5.84471775599283e-016 -1.0
  outer loop
    vertex 109.079798635551 49.3103400322378 15.6865827247094
    vertex 109.079798635551 77.8573855660675 15.6865827247094
    vertex 109.079798635551 52.4279915209612 15.6865827247094
  endloop
endfacet
facet normal -2.58071121040597e-016 5.84471775599283e-016 -1.0
  outer loop
    vertex 188.008549632795 80.9750370547909 15.6865827247093
    vertex 163.884966768997 77.8573855660675 15.6865827247092
    vertex 163.884966768997 80.9750370547909 15.6865827247092
  endloop
endfacet
facet normal -2.58071121040597e-016 5.84471775599283e-016 -1.0
  outer loop
    vertex 163.884966768997 77.8573855660675 15.6865827247092
    vertex 188.008549632795 80.9750370547909 15.6865827247093
    vertex 163.884966768997 52.4279915209612 15.6865827247092
  endloop
endfacet
facet normal -2.58071121040597e-016 5.84471775599283e-016 -1.0
  outer loop
    vertex 163.884966768997 52.4279915209612 15.6865827247092
    vertex 188.008549632795 80.9750370547909 15.6865827247093
    vertex 163.884966768997 49.3103400322378 15.6865827247092
  endloop
endfacet
facet normal -2.58071121040597e-016 5.84471775599283e-016 -1.0
  outer loop
    vertex 163.884966768997 49.3103400322378 15.6865827247092
    vertex 188.008549632795 80.9750370547909 15.6865827247093
    vertex 183.43921119347 74.9038283694414 15.6865827247093
  endloop
endfacet
facet normal -2.58071121040597e-016 5.84471775599283e-016 -1.0
  outer loop
    vertex 183.43921119347 74.9038283694414 15.6865827247093
    vertex 188.008549632795 80.9750370547909 15.6865827247093
    vertex 188.008549632795 78.1575416447505 15.6865827247093
  endloop
endfacet
facet normal -2.58071121040597e-016 5.84471775599283e-016 -1.0
  outer loop
    vertex 163.884966768997 49.3103400322378 15.6865827247092
    vertex 183.43921119347 55.3815487175872 15.6865827247093
    vertex 188.008549632795 49.3103400322378 15.6865827247093
  endloop
endfacet
facet normal -2.58071121040597e-016 5.84471775599283e-016 -1.0
  outer loop
    vertex 183.43921119347 55.3815487175872 15.6865827247093
    vertex 163.884966768997 49.3103400322378 15.6865827247092
    vertex 183.43921119347 74.9038283694414 15.6865827247093
  endloop
endfacet
facet normal -2.58071121040597e-016 5.84471775599283e-016 -1.0
  outer loop
    vertex 188.008549632795 49.3103400322378 15.6865827247093
    vertex 183.43921119347 55.3815487175872 15.6865827247093
    vertex 188.008549632795 52.1278354422781 15.6865827247093
  endloop
endfacet
endsolid case_final_v3
